<svg id="Layer_1" data-name="Layer 1" xmlns="http://www.w3.org/2000/svg" xmlns:xlink="http://www.w3.org/1999/xlink" viewBox="0 0 1800.55 1000.73"><defs><style>.cls-1{fill:url(#linear-gradient);}.cls-2{fill:url(#linear-gradient-2);}.cls-3{fill:url(#linear-gradient-3);}.cls-4{fill:url(#linear-gradient-4);}.cls-5{fill:url(#linear-gradient-5);}.cls-6{fill:url(#linear-gradient-6);}.cls-7{fill:url(#linear-gradient-7);}.cls-8{fill:url(#linear-gradient-8);}.cls-9{fill:url(#linear-gradient-9);}.cls-10{fill:url(#linear-gradient-10);}.cls-11{fill:url(#linear-gradient-11);}.cls-12{fill:url(#linear-gradient-12);}.cls-13{fill:url(#linear-gradient-13);}.cls-14{fill:url(#linear-gradient-14);}.cls-15{fill:#fff;}.cls-16{fill:url(#linear-gradient-15);}.cls-17{fill:url(#linear-gradient-16);}.cls-18{fill:url(#linear-gradient-17);}.cls-19{fill:url(#linear-gradient-18);}.cls-20{opacity:0.99;font-size:132.04px;letter-spacing:0.18em;}.cls-20,.cls-21{isolation:isolate;}.cls-20,.cls-22{font-family:AronGrotesque-Bold, Aron Grotesque;font-weight:700;}.cls-22{font-size:70px;letter-spacing:0.02em;}.cls-23{letter-spacing:0.01em;}.cls-24{letter-spacing:0.02em;}</style><linearGradient id="linear-gradient" x1="43.97" y1="-164.02" x2="602.17" y2="-164.02" gradientTransform="translate(-12.67 844.82)" gradientUnits="userSpaceOnUse"><stop offset="0" stop-color="#a73c23"/><stop offset="0.51" stop-color="#f26f39"/><stop offset="1" stop-color="#f37c4c"/></linearGradient><linearGradient id="linear-gradient-2" x1="12.67" y1="-168.28" x2="570.87" y2="-168.28" gradientTransform="translate(-12.67 844.82)" gradientUnits="userSpaceOnUse"><stop offset="0" stop-color="#f37c4c"/><stop offset="0.51" stop-color="#f26f39"/><stop offset="1" stop-color="#a73c23"/></linearGradient><linearGradient id="linear-gradient-3" x1="373.01" y1="-246.21" x2="494.25" y2="-246.21" gradientTransform="translate(-45.87 831.38)" xlink:href="#linear-gradient"/><linearGradient id="linear-gradient-4" x1="179.91" y1="-246.26" x2="301.16" y2="-246.26" gradientTransform="translate(-45.87 831.38)" xlink:href="#linear-gradient"/><linearGradient id="linear-gradient-5" x1="119.14" y1="-85.68" x2="240.44" y2="-85.68" gradientTransform="translate(-45.87 831.38)" xlink:href="#linear-gradient"/><linearGradient id="linear-gradient-6" x1="277.14" y1="21.53" x2="398.34" y2="21.53" gradientTransform="translate(-45.87 831.38)" xlink:href="#linear-gradient"/><linearGradient id="linear-gradient-7" x1="433.54" y1="-88.4" x2="554.79" y2="-88.4" gradientTransform="translate(-45.87 831.38)" xlink:href="#linear-gradient"/><linearGradient id="linear-gradient-8" x1="248.27" y1="326.91" x2="339.27" y2="326.91" gradientTransform="matrix(1, 0, 0, -1, 0, 1027.28)" gradientUnits="userSpaceOnUse"><stop offset="0" stop-color="#ce572f"/><stop offset="0.55" stop-color="#e86836"/><stop offset="1" stop-color="#f37745"/></linearGradient><linearGradient id="linear-gradient-9" x1="1265.77" y1="-498.03" x2="1281.96" y2="-498.03" gradientTransform="translate(-45.87 831.38)" xlink:href="#linear-gradient-2"/><linearGradient id="linear-gradient-10" x1="1071.17" y1="-172.85" x2="1076.01" y2="-172.85" gradientTransform="translate(-45.87 831.38)" xlink:href="#linear-gradient-2"/><linearGradient id="linear-gradient-11" x1="831.94" y1="-451.41" x2="1322.08" y2="-451.41" gradientTransform="translate(-45.87 831.38)" gradientUnits="userSpaceOnUse"><stop offset="0" stop-color="#a73c23"/><stop offset="0.31" stop-color="#a73c23"/><stop offset="0.51" stop-color="#f26f39"/><stop offset="1" stop-color="#f37c4c"/></linearGradient><linearGradient id="linear-gradient-12" x1="1187.68" y1="-655.75" x2="1196.48" y2="-655.75" gradientTransform="translate(-45.87 831.38)" xlink:href="#linear-gradient-2"/><linearGradient id="linear-gradient-13" x1="1264.14" y1="-622.34" x2="1264.14" y2="-622.34" gradientTransform="translate(-45.87 831.38)" xlink:href="#linear-gradient-2"/><linearGradient id="linear-gradient-14" x1="109.94" y1="-207.21" x2="1126.04" y2="-207.21" gradientTransform="translate(-45.87 831.38)" xlink:href="#linear-gradient-2"/><linearGradient id="linear-gradient-15" x1="851.47" y1="-172.17" x2="858.19" y2="-172.17" gradientTransform="translate(-45.87 831.38)" xlink:href="#linear-gradient-2"/><linearGradient id="linear-gradient-16" x1="868.74" y1="-204.28" x2="889.74" y2="-204.28" gradientTransform="translate(-45.87 831.38)" xlink:href="#linear-gradient-2"/><linearGradient id="linear-gradient-17" x1="855.71" y1="-444.15" x2="1305.59" y2="-444.15" gradientTransform="translate(-45.87 831.38)" xlink:href="#linear-gradient-2"/><linearGradient id="linear-gradient-18" x1="806.24" y1="-459.54" x2="1304.58" y2="-459.54" gradientTransform="translate(-45.87 831.38)" xlink:href="#linear-gradient-2"/></defs><g id="Layer_1-2" data-name="Layer 1-2"><ellipse class="cls-1" cx="310.4" cy="680.8" rx="279.1" ry="269.15"/><ellipse class="cls-2" cx="279.1" cy="676.54" rx="279.1" ry="269.15"/><path class="cls-3" d="M448.37,585.12c0,33.22-27.2,60.24-60.7,60.24a65.2,65.2,0,0,1-13-1.36c-27.2-5.91-47.7-30-47.7-58.79C327,552,354.17,525,387.67,525a61.21,61.21,0,0,1,31,8.43A60.15,60.15,0,0,1,448.37,585.12Z" transform="translate(-12.67 -19.19)"/><path class="cls-4" d="M255.27,585.12c0,33.22-27.2,60.24-60.7,60.24a61.78,61.78,0,0,1-13.2-1.45,60.19,60.19,0,0,1,13-119,61.2,61.2,0,0,1,31,8.42A60.38,60.38,0,0,1,255.27,585.12Z" transform="translate(-12.67 -19.19)"/><path class="cls-5" d="M194.57,745.7c0,33.22-27.2,60.24-60.7,60.24h-.2c-33.3-.2-60.4-27.12-60.4-60.24s27.2-60.25,60.7-60.25a60.44,60.44,0,0,1,60.6,60.25Z" transform="translate(-12.67 -19.19)"/><path class="cls-6" d="M352.47,852.81c0,33.22-27.2,60.24-60.7,60.24-2.4,0-4.6-.19-6.8-.29-30.3-3.48-53.7-28.86-53.7-59.75,0-33.22,27.2-60.24,60.7-60.24a61.62,61.62,0,0,1,26,5.81C339.07,808.84,352.47,829.86,352.47,852.81Z" transform="translate(-12.67 -19.19)"/><path class="cls-7" d="M509.07,742.89c0,33.22-27.2,60.24-60.7,60.24-2.2,0-4.6-.2-6.8-.29a56.74,56.74,0,0,1-11.3-2.33,60.31,60.31,0,0,1-42.6-57.43c0-33.22,27.2-60.24,60.7-60.24a60.26,60.26,0,0,1,28.4,7,46.84,46.84,0,0,1,5.1,3A59.87,59.87,0,0,1,509.07,742.89Z" transform="translate(-12.67 -19.19)"/><path class="cls-8" d="M339.27,700.47a45.21,45.21,0,0,1-45.5,45,17,17,0,0,1-3.1-.19c-2-.2-4.1-.49-6.1-.78a45.08,45.08,0,0,1,9.2-89.29,46.47,46.47,0,0,1,19.7,4.45c.9.49,1.7.78,2.6,1.36A45.17,45.17,0,0,1,339.27,700.47Z" transform="translate(-12.67 -19.19)"/><path class="cls-9" d="M1236.17,318.1a299.75,299.75,0,0,1-16.3,30.51" transform="translate(-12.67 -19.19)"/><path class="cls-10" d="M1030.07,656.4c-1.5,1.45-3.3,3-4.8,4.26" transform="translate(-12.67 -19.19)"/><path class="cls-11" d="M1251,310.16c-6.8,15-15.9,30.21-27.2,43.1-12,13.65-26.5,24.6-43.4,29.53l-2,.49a78,78,0,0,1-14.9,2.32,81.2,81.2,0,0,0,11.8,3.49,8.82,8.82,0,0,0,1.5.29,90.2,90.2,0,0,0,25.5,1.36c-11.8,22.47-23.8,44.94-36.1,67.21-1.9,2.13-3.1,4.94-5.1,7-3.6,3.49-9.2,4-14.2,5.14a58.46,58.46,0,0,0-8.2,2.61c-3.1,1.36-6,3-9.2,4a13.18,13.18,0,0,0-3.8,1.17c5.7,4.64,15.4,5.81,23.3,6.78l-101.3,148.56c-3.3,1.07-6.7,2-10.1,2.81-10.8,2.62-21.7,5.43-32.8,6.78a20,20,0,0,1-2.4.29,21.85,21.85,0,0,1-3.6.29,143.29,143.29,0,0,1-18.3.2c-.5,1,1,1.64,2.2,1.84l7.7.48h1.2c-7.2,1-14.9,1.36-21.4,3.1s-13.2,3.49-19.8,2.33a40.5,40.5,0,0,1,12,5.42c2.1,1.36,3.9,2.81,6,4.16a12.1,12.1,0,0,0,4.8,1.65l-5.1,4.65c-21,8.23-44.6,10.75-65.7,3.1,2.6,16.46,5,32.83,7.5,49.39l-2.2,1.94c-6.5-8.91-11.3-18.69-11.6-29.35-.5-12.59,5.1-24.4,10.4-35.83q99.75-210.21,199.7-420.33-46.2,62.9-86.5,129.19,35.1-73.8,70.1-147.69-46.35,63.33-87,130.16a10,10,0,0,1-.9,1.36A1982.9,1982.9,0,0,0,883.67,576c-4.8,11-9.6,22-15.4,32.35A129.64,129.64,0,0,1,850,633.93c-9.9,10.36-22.1,18.5-35.2,25.28a1.45,1.45,0,0,1-.9.29,1.31,1.31,0,0,0-.8-.29q-11.25-5-22.2-9.88c-.3-.19-.9-.29-1.2-.49-1.2-.48-2.4-1.16-3.6-1.64a52.42,52.42,0,0,0,5.5-.2h1.8a165.62,165.62,0,0,0,44.5-8.42c3.8-1.36,8-3.29,8.5-7,.3-2.52-1.2-4.85-2.6-7-10.4-15.3-20.9-30.51-31.5-45.91,9.2,3,18.3,5.91,27.5,8.91,5.5-24.21,12-48.52,19.3-72.44a1067.94,1067.94,0,0,1,119-258.11c25.5-40.09,53.5-78.74,85-115.06q24.6-28.18,51.5-54.43c9.1-8.71,18.3-17.33,27.7-25.57,2.6-2.32,25.7-24.6,27.5-23.63A204.52,204.52,0,0,1,1212,67.93c2.6,2.33,5.1,4.75,7.7,7.46,33,33.22,53.9,77.09,56.3,122.13C1278,235.68,1267.47,274.32,1251,310.16Z" transform="translate(-12.67 -19.19)"/><path class="cls-12" d="M1150.67,170l-8.7,11.24c0-.29-.2-.87-.2-1.16" transform="translate(-12.67 -19.19)"/><path class="cls-13" d="M1218.27,209" transform="translate(-12.67 -19.19)"/><path class="cls-14" d="M1080.17,234.42Q998.12,407,916.17,579.69c-15.7,33.22-31.6,66.54-51,97.82-20.7,33.71-45.5,65.18-70.1,96.56-29.8,37.78-59.7,75.93-96.8,108-28.6,24.6-61,45.23-94.9,63.25-88.8,46.87-191,75.93-292.7,67-85.3-7.46-214.6-54.43-246.6-136.66,12.1,5.62,24.1,24.21,35,34.38a346.55,346.55,0,0,0,47.2,36.32,367.44,367.44,0,0,0,111.5,47.17c78.3,19.17,162.5,14.23,239.2-9.4,124-38.16,227.4-124,294.8-227.6,45.5-69.83,75.6-147.21,110.6-222A1851.12,1851.12,0,0,1,1080.17,234.42Z" transform="translate(-12.67 -19.19)"/><path class="cls-15" d="M339.27,700.47a45.21,45.21,0,0,1-45.5,45,17,17,0,0,1-3.1-.19,44.94,44.94,0,0,1-25.8-40.58c0-24.89,20.4-45,45.5-45a16.15,16.15,0,0,1,3.1.2c.9.48,1.7.77,2.6,1.35A44.57,44.57,0,0,1,339.27,700.47Z" transform="translate(-12.67 -19.19)"/><path class="cls-15" d="M509.07,742.89c0,33.22-27.2,60.24-60.7,60.24-2.2,0-4.6-.2-6.8-.29a60.2,60.2,0,0,1-32.3-53.27c0-33.22,27.2-60.24,60.7-60.24,2.2,0,4.6.19,6.8.29a46.72,46.72,0,0,1,5.1,3A60.72,60.72,0,0,1,509.07,742.89Z" transform="translate(-12.67 -19.19)"/><path class="cls-15" d="M448.37,585.12c0,33.22-27.2,60.24-60.7,60.24a65.2,65.2,0,0,1-13-1.36,60.28,60.28,0,0,1-29.8-51.81c0-33.22,27.2-60.24,60.7-60.24a65.19,65.19,0,0,1,13,1.35A60.41,60.41,0,0,1,448.37,585.12Z" transform="translate(-12.67 -19.19)"/><path class="cls-15" d="M255.27,585.12c0,33.22-27.2,60.24-60.7,60.24a61.78,61.78,0,0,1-13.2-1.45,59.92,59.92,0,0,1-29.6-51.63c0-33.22,27.2-60.24,60.7-60.24a60.47,60.47,0,0,1,13.2,1.46A59.89,59.89,0,0,1,255.27,585.12Z" transform="translate(-12.67 -19.19)"/><path class="cls-15" d="M194.57,745.7c0,33.22-27.2,60.24-60.7,60.24h-.2a60.23,60.23,0,0,1,21.2-116.71h.4A60.25,60.25,0,0,1,194.57,745.7Z" transform="translate(-12.67 -19.19)"/><path class="cls-15" d="M352.47,852.81c0,33.22-27.2,60.24-60.7,60.24-2.4,0-4.6-.19-6.8-.29a60.14,60.14,0,0,1-34.7-54.43c0-33.22,27.2-60.24,60.7-60.24,2.4,0,4.6.2,7,.29C339.07,808.75,352.47,829.76,352.47,852.81Z" transform="translate(-12.67 -19.19)"/><path class="cls-16" d="M805.57,663l5.3-7.55a9,9,0,0,1,1.4.68c-1.7,1.84-3.6,3.68-5.3,5.42h0C806.47,662,806.07,662.5,805.57,663Z" transform="translate(-12.67 -19.19)"/><path class="cls-17" d="M822.87,638.09l15.2-22,3.1,4.45c1.4,2.13,2.9,4.46,2.6,7-.5,3.68-4.8,5.81-8.7,7A108.22,108.22,0,0,1,822.87,638.09Z" transform="translate(-12.67 -19.19)"/><path class="cls-18" d="M1234.57,291.46c-6.8,15-15.9,30.22-27.2,43.1-15.7,18-35.9,31.19-60.4,32.16a87,87,0,0,0,38.8,4.94c-1,1.93-2,3.77-3.1,5.81a73.29,73.29,0,0,1-21.9,4.45,86.41,86.41,0,0,0,17.1,4.46c-.3.87-.9,1.45-1.2,2.32,0,.2-.2.2-.2.29q-13.35,25-26.8,49.88c-1.9,2.13-3.1,4.94-5.1,6.88-3.6,3.48-9.2,4-14.2,5.13a57.21,57.21,0,0,0-8.2,2.62c-3.1,1.35-6,3-9.2,3.77-1.4.49-2.6.49-3.8,1.17,5.6,4.64,15.4,5.81,23.3,6.78l-4.8,7.07c-.2,0-.5.19-.7.19-1.4.48-2.6.48-3.8,1.16a10.53,10.53,0,0,0,2.4,1.65l-94.4,138.4a93.32,93.32,0,0,1-10.1,2.81c-12.8,3.1-25.7,6.49-39,7.45a143.29,143.29,0,0,1-18.3.2c-.5,1,1,1.64,2.2,1.84a540.4,540.4,0,0,0,55.9,1.16l.2-.19-.7,1.16c-2.9,3-6,6.1-9.1,8.91-5.5,1-10.8,1.84-16.3,2.32a143.29,143.29,0,0,1-18.3.2c-.5,1,1,1.64,2.2,1.84,7.7.48,15.6,1,23.4,1.16,10.8.29,21.7.29,32.5,0l.2-.19-.7,1.16c-3.1,3.1-6.2,6.29-9.4,9.39a24.59,24.59,0,0,1-7.5,4.65c-.2.2-.5.2-.7.29a63,63,0,0,1-12,2.81h-.5c-7.2,1-14.9,1.36-21.4,3.1-5.1,1.36-10.4,2.81-15.7,2.61a25.6,25.6,0,0,1-3.9-.29,28.29,28.29,0,0,1,2.7.88,47,47,0,0,1,9.2,4.45c2,1.36,3.9,2.81,6,4.17a12.24,12.24,0,0,0,4.8,1.64c1.3.2,2.6.39,3.9.68a16,16,0,0,1-2.9,1.36c-2,1-4.1,1.84-6.2,2.61-21,8.23-44.6,10.75-65.7,3.1,2.6,16.47,5,32.83,7.5,49.39l.5,3.49c0,.49.2,1,.2,1.65l-3.1-3c-4.6-4.65-9.2-9.59-13.3-14.53-8-10.07-14.2-20.92-14.7-33.32-.5-12.59,5.1-24.41,10.6-35.83q61.5-129.74,123.1-259.27c2.1-4.46,4.3-8.91,6.3-13.18q35.1-73.8,70.3-147.69-36.75,50-69.8,102.27c18.6-39.13,37.3-78.45,55.7-117.48q-46.35,63.35-87,130.17a10.55,10.55,0,0,1-.9,1.35q-44.85,74-82.8,151.38l-80.9,116.22c-9.4-13.65-18.8-27.6-28.4-41.26,9.2,3,18.3,5.91,27.5,8.92,5.5-24.22,12-48.53,19.3-72.45a1067.94,1067.94,0,0,1,119-258.11c25.5-40.09,53.5-78.74,85-115.06,16.4-18.88,33.5-37,51.6-54.43,9.1-8.71,18.1-17.33,27.5-25.57,2.6-2.32,25.7-24.6,27.5-23.63a196.23,196.23,0,0,1,48.4,35.45,55.14,55.14,0,0,1,3.8,4.65c23.4,30.22,38,66.54,39.8,103.63C1261.57,217.28,1251,255.82,1234.57,291.46Z" transform="translate(-12.67 -19.19)"/><path class="cls-19" d="M1125.67,475.67l-94.4,138.5a91.09,91.09,0,0,1-10.1,2.81c-12.8,3.1-25.7,6.49-39,7.46a145.14,145.14,0,0,1-18.3.19c-.5,1,1,1.65,2.2,1.84a534.87,534.87,0,0,0,55.9,1.16l.2-.19-.7,1.16c-2.9,3-6,6.1-9.1,8.91-.2.2-.3.29-.5.29a24.59,24.59,0,0,1-7.5,4.65c-.2.2-.5.2-.7.29s-.3.1-.3.2a49.34,49.34,0,0,1-11.6,2.61h-.5c-7.2,1-14.9,1.36-21.4,3.1s-13.2,3.49-19.8,2.33a40.5,40.5,0,0,1,12,5.42c2,1.36,3.9,2.81,6,4.16a12.1,12.1,0,0,0,4.8,1.65c1.3.19,2.6.39,3.9.68a15.3,15.3,0,0,1-2.9,1.35c-1.9.78-3.9,1.65-5.8,2.43-.1,0-.2.09-.3.19a2.58,2.58,0,0,1-.9.29c-20.7,8-44.1,10.27-65,2.81,2.6,16.46,5,32.83,7.5,49.39l.5,3.49c0,.48.2,1,.2,1.65-.8-.78-1.5-1.65-2.4-2.52l-.7-.68c-13.7-13.85-27.2-29.35-27.9-47.84-.5-12.6,5.1-24.41,10.6-35.84q61.5-129.74,123.1-259.37c2-4.45,4.3-8.91,6.3-13.17,4.8-10.07,9.6-20.14,14.4-30.41,18.6-39.13,37.3-78.35,55.7-117.48q-46.5,63.35-87,130.17a10.55,10.55,0,0,1-.9,1.35q-44.85,74.1-82.8,151.38-18.45,37.34-35.2,75.55c-4.8,10.84-9.6,22-15.4,32.34a129.64,129.64,0,0,1-18.3,25.57c-9.9,10.37-22.1,18.5-35.2,25.28a1.38,1.38,0,0,1-.8.29c-2.7,1.36-5.5,2.62-8.4,4-14.4,6.39-29.8,11.53-44.8,16.47,9.8-10.17,19.8-20.63,29.8-30.8l.5-.49,1-1a7.52,7.52,0,0,0,.7-.88h0c1.2-1.35,2.4-2.42,3.6-3.77.5-.68,1.2-1.17,1.7-1.84-9.6-4.27-19.2-8.62-28.9-12.69a172.48,172.48,0,0,0,51.6-8.72c3.8-1.35,8-3.29,8.7-7,.3-2.52-1.2-4.75-2.6-7-10.4-15.4-20.8-30.61-31.4-45.91,9.2,3,18.3,5.91,27.5,8.91,5.5-24.21,12-48.52,19.3-72.45a1071.21,1071.21,0,0,1,119-258.1c25.5-40.1,53.5-78.74,85-115.06,16.4-18.79,33.5-37,51.6-54.43,9.1-8.72,18.1-17.34,27.5-25.57,2.6-2.33,25.7-24.6,27.5-23.63a206,206,0,0,1,60.2,48c.7.78,1.5,1.84,2.2,2.62a55.14,55.14,0,0,1,3.8,4.65c23.4,30.22,38,66.53,39.8,103.63,2,38.84-8.6,77.38-25,113.22-6.8,15-15.9,30.21-27.2,43.1-15.7,18-35.9,31.18-60.4,32.15a86.81,86.81,0,0,0,38.8,4.94c-1,1.94-2,3.78-3.1,5.81l-2.6,4.94a1.27,1.27,0,0,0-.3.48c-.5,1.17-1.2,2.33-1.7,3.3a25.62,25.62,0,0,1-1.2,2.32c0,.2-.2.2-.2.29q-13.35,25-26.8,49.88c-1.9,2.13-3.1,4.94-5.1,6.88-3.6,3.48-9.2,4-14.2,5.13a57.21,57.21,0,0,0-8.2,2.62c-3.1,1.35-6,3-9.2,3.77-1.4.49-2.6.49-3.8,1.16,5.7,4.65,15.4,5.82,23.3,6.78l-4.8,7.07-1.1,3.68" transform="translate(-12.67 -19.19)"/><text class="cls-20" transform="translate(596.64 822.96) scale(1.03 1)">R</text><text class="cls-20" transform="translate(831.8 824.06) scale(1.03 1)">ONS MEDIA</text><text class="cls-21" x="-12.67" y="-19.19"/></g><text class="cls-22" transform="translate(685.28 938.59)">A LITE<tspan class="cls-23" x="209.79" y="0">R</tspan><tspan class="cls-24" x="255.15" y="0">ARY AND FILM AGENCY</tspan></text></svg>